<mxfile host="Electron" modified="2023-04-13T20:55:25.677Z" agent="Mozilla/5.0 (X11; Linux x86_64) AppleWebKit/537.36 (KHTML, like Gecko) draw.io/21.1.2 Chrome/106.0.5249.199 Electron/21.4.3 Safari/537.36" etag="a_PYsoBAcRwhHWg2scDN" version="21.1.2" type="device">
  <diagram name="Page-1" id="jig1KxTQIBm6_4zE4UQv">
    <mxGraphModel dx="989" dy="600" grid="1" gridSize="10" guides="1" tooltips="1" connect="1" arrows="1" fold="1" page="1" pageScale="1" pageWidth="850" pageHeight="1100" math="0" shadow="0">
      <root>
        <mxCell id="0" />
        <mxCell id="1" parent="0" />
        <mxCell id="xtoA8kuY6AniBKlyXmYx-1" value="" style="rounded=1;whiteSpace=wrap;html=1;" parent="1" vertex="1">
          <mxGeometry x="200" y="320" width="160" height="280" as="geometry" />
        </mxCell>
        <mxCell id="xtoA8kuY6AniBKlyXmYx-3" value="" style="rounded=1;whiteSpace=wrap;html=1;" parent="1" vertex="1">
          <mxGeometry x="480" y="320" width="160" height="280" as="geometry" />
        </mxCell>
        <mxCell id="xtoA8kuY6AniBKlyXmYx-8" value="&lt;font style=&quot;&quot;&gt;&lt;span style=&quot;font-size: 19px;&quot;&gt;OSINT&lt;/span&gt;&lt;br&gt;&lt;font style=&quot;font-size: 12px;&quot;&gt;(Backend)&lt;/font&gt;&lt;br&gt;&lt;/font&gt;" style="text;html=1;strokeColor=none;fillColor=none;align=center;verticalAlign=middle;whiteSpace=wrap;rounded=0;" parent="1" vertex="1">
          <mxGeometry x="250" y="330" width="60" height="30" as="geometry" />
        </mxCell>
        <mxCell id="xtoA8kuY6AniBKlyXmYx-9" value="&lt;font style=&quot;&quot;&gt;&lt;font style=&quot;font-size: 18px;&quot;&gt;OSINT-Relay&lt;/font&gt;&lt;br&gt;&lt;font style=&quot;font-size: 12px;&quot;&gt;(Relay)&lt;/font&gt;&lt;br&gt;&lt;/font&gt;" style="text;html=1;strokeColor=none;fillColor=none;align=center;verticalAlign=middle;whiteSpace=wrap;rounded=0;" parent="1" vertex="1">
          <mxGeometry x="472.5" y="330" width="175" height="30" as="geometry" />
        </mxCell>
        <mxCell id="xtoA8kuY6AniBKlyXmYx-11" value="" style="shape=flexArrow;endArrow=classic;html=1;rounded=0;exitX=1;exitY=0.5;exitDx=0;exitDy=0;endWidth=22.53472222222222;endSize=10.67;width=76;fillColor=#dae8fc;strokeColor=#6c8ebf;labelBackgroundColor=#DAE8FC;" parent="1" source="xtoA8kuY6AniBKlyXmYx-1" target="xtoA8kuY6AniBKlyXmYx-3" edge="1">
          <mxGeometry width="50" height="50" relative="1" as="geometry">
            <mxPoint x="340" y="430" as="sourcePoint" />
            <mxPoint x="440" y="380" as="targetPoint" />
          </mxGeometry>
        </mxCell>
        <mxCell id="LClEg7o3yGqHfvYDXH5X-3" value="Always-on &lt;br&gt;OpenVPN" style="edgeLabel;html=1;align=center;verticalAlign=middle;resizable=0;points=[];labelBackgroundColor=#DAE8FC;" vertex="1" connectable="0" parent="xtoA8kuY6AniBKlyXmYx-11">
          <mxGeometry x="0.5167" y="-5" relative="1" as="geometry">
            <mxPoint x="-41" y="-25" as="offset" />
          </mxGeometry>
        </mxCell>
        <mxCell id="xtoA8kuY6AniBKlyXmYx-15" value="Operator" style="shape=umlActor;verticalLabelPosition=bottom;verticalAlign=top;html=1;outlineConnect=0;" parent="1" vertex="1">
          <mxGeometry x="30" y="410" width="30" height="60" as="geometry" />
        </mxCell>
        <mxCell id="xtoA8kuY6AniBKlyXmYx-17" value="&lt;font style=&quot;font-size: 10px;&quot;&gt;SSH&lt;/font&gt;" style="text;html=1;strokeColor=none;fillColor=none;align=center;verticalAlign=middle;whiteSpace=wrap;rounded=0;" parent="1" vertex="1">
          <mxGeometry x="100" y="400" width="60" height="30" as="geometry" />
        </mxCell>
        <mxCell id="xtoA8kuY6AniBKlyXmYx-28" value="" style="endArrow=classic;html=1;rounded=0;entryX=0.008;entryY=0.391;entryDx=0;entryDy=0;entryPerimeter=0;" parent="1" target="xtoA8kuY6AniBKlyXmYx-1" edge="1">
          <mxGeometry width="50" height="50" relative="1" as="geometry">
            <mxPoint x="70" y="430" as="sourcePoint" />
            <mxPoint x="150" y="420" as="targetPoint" />
          </mxGeometry>
        </mxCell>
        <mxCell id="LClEg7o3yGqHfvYDXH5X-4" value="OSINT Tools" style="rounded=1;whiteSpace=wrap;html=1;" vertex="1" parent="1">
          <mxGeometry x="220" y="430" width="120" height="60" as="geometry" />
        </mxCell>
        <mxCell id="LClEg7o3yGqHfvYDXH5X-5" value="The Internet" style="ellipse;shape=cloud;whiteSpace=wrap;html=1;" vertex="1" parent="1">
          <mxGeometry x="700" y="420" width="120" height="80" as="geometry" />
        </mxCell>
        <mxCell id="LClEg7o3yGqHfvYDXH5X-6" value="" style="endArrow=classic;html=1;rounded=0;exitX=1;exitY=0.5;exitDx=0;exitDy=0;entryX=0.102;entryY=0.509;entryDx=0;entryDy=0;entryPerimeter=0;fillColor=#f8cecc;strokeColor=#b85450;strokeWidth=3;" edge="1" parent="1" source="LClEg7o3yGqHfvYDXH5X-4" target="LClEg7o3yGqHfvYDXH5X-5">
          <mxGeometry width="50" height="50" relative="1" as="geometry">
            <mxPoint x="400" y="330" as="sourcePoint" />
            <mxPoint x="450" y="280" as="targetPoint" />
          </mxGeometry>
        </mxCell>
        <mxCell id="LClEg7o3yGqHfvYDXH5X-7" value="" style="endArrow=classic;html=1;rounded=0;entryX=0.008;entryY=0.391;entryDx=0;entryDy=0;entryPerimeter=0;" edge="1" parent="1">
          <mxGeometry width="50" height="50" relative="1" as="geometry">
            <mxPoint x="70" y="460.5" as="sourcePoint" />
            <mxPoint x="201" y="459.5" as="targetPoint" />
          </mxGeometry>
        </mxCell>
        <mxCell id="LClEg7o3yGqHfvYDXH5X-8" value="&lt;font style=&quot;font-size: 10px;&quot;&gt;RDP&lt;/font&gt;" style="text;html=1;strokeColor=none;fillColor=none;align=center;verticalAlign=middle;whiteSpace=wrap;rounded=0;" vertex="1" parent="1">
          <mxGeometry x="100" y="460" width="60" height="30" as="geometry" />
        </mxCell>
      </root>
    </mxGraphModel>
  </diagram>
</mxfile>
